<?xml version="1.0" encoding="utf-8"?><!-- Uploaded to: SVG Repo, www.svgrepo.com, Generator: SVG Repo Mixer Tools -->
<svg fill="#000000" width="800px" height="800px" viewBox="0 0 24 24" id="gaming-mouse" data-name="Flat Color" xmlns="http://www.w3.org/2000/svg" class="icon flat-color"><path id="primary" d="M18.18,3.86h0A10.34,10.34,0,0,0,12,2,10.26,10.26,0,0,0,5.82,3.86,2,2,0,0,0,5,5.47V15a7,7,0,0,0,14,0V5.47A2,2,0,0,0,18.18,3.86Z" style="fill: rgb(0, 0, 0);"></path><path id="secondary" d="M19,9v2H5V9h6V2c.32,0,.65,0,1,0s.68,0,1,0V9Z" style="fill: rgb(44, 169, 188);"></path></svg>